<?xml version="1.0" standalone="no"?>
<!DOCTYPE svg PUBLIC "-//W3C//DTD SVG 20010904//EN"
 "http://www.w3.org/TR/2001/REC-SVG-20010904/DTD/svg10.dtd">
<svg version="1.0" xmlns="http://www.w3.org/2000/svg"
 width="512.000000pt" height="512.000000pt" viewBox="0 0 512.000000 512.000000"
 preserveAspectRatio="xMidYMid meet">
<metadata>
Created by potrace 1.11, written by Peter Selinger 2001-2013
</metadata>
<g transform="translate(0.000000,512.000000) scale(0.100000,-0.100000)"
fill="#000000" stroke="none">
<path d="M1081 5090 c-314 -66 -568 -303 -625 -582 -20 -97 -20 -290 -1 -382
25 -119 104 -259 209 -374 l39 -42 -41 -59 c-89 -126 -116 -171 -181 -302 -70
-141 -127 -298 -157 -434 -14 -59 -19 -130 -20 -270 -1 -112 -6 -202 -13 -218
-37 -95 23 -214 126 -248 21 -7 63 -32 93 -57 122 -99 309 -163 545 -183 l134
-12 -68 -72 c-50 -53 -73 -86 -86 -125 -46 -137 31 -299 170 -361 130 -57 305
-18 417 94 52 52 53 51 63 -23 3 -25 23 -85 45 -133 l39 -88 -37 -23 c-20 -13
-57 -33 -81 -46 -165 -84 -231 -170 -231 -303 0 -48 6 -76 26 -115 51 -103
145 -153 299 -160 159 -7 267 29 441 145 49 33 94 62 100 66 8 5 7 -5 -2 -31
-22 -61 -17 -159 10 -217 78 -169 349 -241 579 -155 50 19 132 70 302 190 86
60 193 117 392 208 183 83 302 161 404 262 126 125 202 256 255 438 2 9 25 2
76 -24 101 -51 207 -157 237 -237 114 -308 -52 -588 -474 -799 -318 -159 -685
-228 -1220 -228 -404 0 -736 69 -1047 217 -128 61 -160 64 -134 14 36 -69 179
-155 406 -244 307 -120 592 -163 1029 -154 593 12 1014 124 1333 354 93 67
227 203 282 287 129 195 161 430 84 611 -69 164 -245 324 -458 416 -95 41 -85
26 -110 174 -27 168 -122 387 -237 548 -106 147 -378 410 -550 532 -24 17 -43
33 -43 36 0 4 30 24 68 45 89 51 226 189 281 281 91 153 131 303 131 488 0
278 -88 483 -300 695 -137 137 -234 199 -397 253 -233 77 -473 69 -681 -24
-137 -61 -290 -197 -385 -341 l-52 -79 -6 88 c-14 179 -75 332 -179 446 -104
113 -213 181 -370 232 -74 24 -104 28 -235 31 -82 2 -170 -1 -194 -6z m339
-197 c105 -24 206 -79 287 -156 127 -120 170 -246 159 -460 -3 -67 -9 -145
-12 -174 -5 -46 -3 -55 18 -75 29 -29 177 -73 213 -64 36 9 53 32 91 124 98
236 265 413 453 478 38 13 111 29 163 36 324 41 665 -153 822 -468 104 -209
108 -448 11 -659 -76 -167 -233 -303 -415 -361 -64 -20 -97 -46 -105 -84 -11
-50 10 -76 157 -186 378 -283 564 -480 683 -719 30 -60 67 -155 82 -210 24
-86 28 -118 27 -230 0 -113 -4 -140 -27 -210 -35 -106 -87 -192 -171 -282 -86
-92 -198 -167 -362 -242 -260 -118 -365 -176 -513 -287 -47 -35 -115 -78 -151
-96 -60 -30 -72 -33 -160 -32 -100 0 -151 15 -190 54 -26 26 -28 100 -2 123
18 17 156 95 237 135 173 85 203 147 127 262 -81 121 -81 256 -1 381 22 34 39
69 37 78 -4 21 -51 26 -89 10 -43 -17 -105 -93 -130 -158 -30 -76 -32 -210 -5
-300 19 -62 20 -64 1 -77 -14 -10 -56 -14 -160 -14 -91 0 -158 -5 -187 -14
-25 -7 -87 -43 -139 -80 -208 -150 -282 -181 -417 -174 -95 5 -125 17 -142 59
-25 60 8 100 139 170 100 53 169 105 198 148 32 48 31 114 -3 164 -47 70 -75
148 -85 236 -16 141 -64 212 -145 213 -59 1 -114 -33 -180 -108 -112 -128
-258 -153 -309 -54 -28 55 -20 76 61 163 54 59 87 105 115 164 41 86 45 106
29 147 -17 44 -56 56 -192 56 -222 0 -395 32 -526 96 -65 32 -73 39 -67 57 39
125 -11 239 -120 274 l-30 10 -3 103 c-3 118 14 227 60 370 59 185 185 418
310 571 93 114 93 126 -13 234 -97 99 -161 188 -189 263 -42 112 -43 316 -2
432 26 77 65 135 132 200 165 160 391 218 630 163z"/>
<path d="M1645 3217 c-38 -17 -93 -79 -113 -126 -25 -59 -20 -157 10 -223 60
-130 193 -164 294 -76 58 52 79 101 79 193 0 70 -4 87 -30 134 -38 69 -89 103
-158 108 -30 2 -65 -2 -82 -10z"/>
<path d="M2083 1978 c-6 -7 -14 -29 -18 -48 -9 -43 -27 -79 -75 -150 -63 -93
-83 -140 -83 -196 0 -65 30 -128 86 -185 146 -146 361 -108 457 81 39 77 45
115 26 145 -27 42 -55 31 -109 -40 -90 -119 -207 -147 -284 -70 -47 47 -44 83
12 189 62 118 81 189 63 241 -10 31 -19 41 -39 43 -14 2 -30 -3 -36 -10z"/>
</g>
</svg>
