<?xml version="1.0" encoding="UTF-8" standalone="no"?>
<svg
   xmlns:dc="http://purl.org/dc/elements/1.1/"
   xmlns:cc="http://creativecommons.org/ns#"
   xmlns:rdf="http://www.w3.org/1999/02/22-rdf-syntax-ns#"
   xmlns:svg="http://www.w3.org/2000/svg"
   xmlns="http://www.w3.org/2000/svg"
   version="1.1"
   id="svg2"
   viewBox="0 0 14 14"
   height="14"
   width="14">
  <defs
     id="defs4" />
  <metadata
     id="metadata7">
    <rdf:RDF>
      <cc:Work
         rdf:about="">
        <dc:format>image/svg+xml</dc:format>
        <dc:type
           rdf:resource="http://purl.org/dc/dcmitype/StillImage" />
        <dc:title></dc:title>
      </cc:Work>
    </rdf:RDF>
  </metadata>
  <g
     transform="translate(0,-1038.3622)"
     id="layer1">
    <path
       style="opacity:1;fill:none;stroke:#828282;stroke-width:0.8949815;stroke-miterlimit:4;stroke-dasharray:none;stroke-opacity:1"
       id="path4319"
       d="m 4.3227608,1041.5778 q 0,-0.4585 -0.32438,-0.7829 -0.32437,-0.3244 -0.78284,-0.3244 -0.45844,0 -0.78284,0.3244 -0.32437,0.3244 -0.32437,0.7829 0,0.4584 0.32437,0.7828 0.3244,0.3244 0.78284,0.3244 0.45847,0 0.78284,-0.3244 0.32438,-0.3244 0.32438,-0.7828 z m 9.2297502,4.9825 q 0,0.4584 -0.32006,0.7785 l -4.2472302,4.2558 q -0.33734,0.3201 -0.78715,0.3201 -0.45848,0 -0.77854,-0.3201 l -6.18486,-6.1934 q -0.32871005,-0.3201 -0.55795005,-0.8737 -0.22923,-0.5537 -0.22923,-1.0121 l 0,-3.5985 q 0,-0.4498 0.32872,-0.7785 0.32870005,-0.3287 0.77852005,-0.3287 l 3.59847,0 q 0.45844,0 1.01204,0.2292 0.55363,0.2293 0.88234,0.558 l 6.1848702,6.1762 q 0.32006,0.3374 0.32006,0.7872 z" />
  </g>
</svg>
